<svg width="204" height="204" viewBox="0 0 204 204" fill="none" xmlns="http://www.w3.org/2000/svg">
<g id="eva:charging-outline">
<path id="Vector" d="M178.498 76.5C176.244 76.5 174.082 77.3955 172.488 78.9896C170.894 80.5837 169.998 82.7457 169.998 85V119C169.998 121.254 170.894 123.416 172.488 125.01C174.082 126.604 176.244 127.5 178.498 127.5C180.753 127.5 182.915 126.604 184.509 125.01C186.103 123.416 186.998 121.254 186.998 119V85C186.998 82.7457 186.103 80.5837 184.509 78.9896C182.915 77.3955 180.753 76.5 178.498 76.5ZM134.553 51H108.203L98.5134 68H134.468C135.001 68.4391 135.419 69.0014 135.685 69.6383C135.952 70.2751 136.059 70.9673 135.998 71.655V132.345C136.056 133.024 135.955 133.708 135.704 134.342C135.454 134.976 135.06 135.543 134.553 136H110.498L100.723 153H134.723C139.873 152.65 144.678 150.287 148.098 146.421C151.518 142.556 153.278 137.499 152.998 132.345V71.655C153.277 66.4736 151.493 61.3925 148.037 57.5222C144.581 53.6519 139.733 51.307 134.553 51ZM33.9984 132.345V71.655C33.9474 70.9762 34.051 70.2947 34.3013 69.6616C34.5515 69.0286 34.942 68.4605 35.4434 68H59.4984L69.1034 51H35.1034C29.9843 51.3923 25.2224 53.7741 21.8382 57.635C18.454 61.4958 16.7166 66.5286 16.9984 71.655V132.345C16.7197 137.526 18.5034 142.607 21.9596 146.478C25.4158 150.348 30.2635 152.693 35.4434 153H61.7934L71.4834 136H35.5284C34.9956 135.561 34.5779 134.999 34.3114 134.362C34.0448 133.725 33.9373 133.033 33.9984 132.345Z" fill="#10375C"/>
<path id="Vector_2" d="M76.4996 170C75.0046 170.006 73.5346 169.618 72.2377 168.874C70.9408 168.13 69.863 167.058 69.113 165.765C68.3629 164.472 67.9672 163.003 67.9657 161.508C67.9643 160.014 68.3571 158.545 69.1046 157.25L95.8796 110.5H59.4996C58.0162 110.491 56.561 110.094 55.2786 109.348C53.9962 108.603 52.9312 107.535 52.1896 106.25C51.4435 104.958 51.0508 103.492 51.0508 102C51.0508 100.508 51.4435 99.0422 52.1896 97.75L86.1896 38.25C87.3167 36.2887 89.1769 34.8555 91.3607 34.2657C93.5446 33.6759 95.8733 33.9778 97.8346 35.105C99.7958 36.2322 101.229 38.0923 101.819 40.2761C102.409 42.46 102.107 44.7887 100.98 46.75L74.1196 93.5H110.5C111.983 93.509 113.438 93.9059 114.721 94.6515C116.003 95.3971 117.068 96.4653 117.81 97.75C118.556 99.0422 118.948 100.508 118.948 102C118.948 103.492 118.556 104.958 117.81 106.25L83.8096 165.75C83.0679 167.035 82.0029 168.103 80.7205 168.848C79.4381 169.594 77.9829 169.991 76.4996 170Z" fill="#10375C"/>
</g>
</svg>
