<svg width="32" height="32" viewBox="0 0 32 32" fill="none" xmlns="http://www.w3.org/2000/svg">
<g id="circus 1">
<g id="Group">
<g id="Group_2">
<g id="Group_3">
<path id="Vector" d="M8.77707 8.77778C10.3726 8.77778 11.666 7.48438 11.666 5.88889C11.666 4.2934 10.3726 3 8.77707 3C7.18158 3 5.88818 4.2934 5.88818 5.88889C5.88818 7.48438 7.18158 8.77778 8.77707 8.77778Z" stroke="#10375C" stroke-width="2" stroke-linecap="round" stroke-linejoin="round"/>
<path id="Vector_2" d="M21.7771 8.77778C23.3726 8.77778 24.666 7.48438 24.666 5.88889C24.666 4.2934 23.3726 3 21.7771 3C20.1816 3 18.8882 4.2934 18.8882 5.88889C18.8882 7.48438 20.1816 8.77778 21.7771 8.77778Z" stroke="#10375C" stroke-width="2" stroke-linecap="round" stroke-linejoin="round"/>
<path id="Vector_3" d="M5.16602 13.1111H12.3882L10.9438 29H6.61046L5.16602 13.1111ZM18.166 13.1111H25.3882L26.8327 21.0555H24.666L23.9438 29H19.6105L18.8882 21.0555H16.7216L18.166 13.1111Z" stroke="#10375C" stroke-width="2" stroke-linecap="round" stroke-linejoin="round"/>
</g>
</g>
</g>
</g>
</svg>
