<svg width="186" height="186" viewBox="0 0 186 186" fill="none" xmlns="http://www.w3.org/2000/svg">
<g id="fluent:premium-32-regular">
<path id="Vector" d="M40.6861 23.25C39.6069 23.2506 38.5492 23.5516 37.6314 24.1193C36.7137 24.687 35.9721 25.499 35.4897 26.4643L12.2397 72.9643C11.7393 73.9641 11.5379 75.0869 11.6595 76.1983C11.7812 77.3097 12.2207 78.3623 12.9256 79.2302L88.4881 172.23C89.0331 172.901 89.7207 173.441 90.501 173.813C91.2812 174.184 92.1345 174.377 92.9986 174.377C93.8627 174.377 94.7159 174.184 95.4961 173.813C96.2764 173.441 96.9641 172.901 97.5091 172.23L173.072 79.2302C173.776 78.3623 174.216 77.3097 174.338 76.1983C174.459 75.0869 174.258 73.9641 173.757 72.9643L150.507 26.4643C150.025 25.499 149.283 24.687 148.366 24.1193C147.448 23.5516 146.39 23.2506 145.311 23.25H40.6861ZM26.8407 69.75L44.2782 34.875H68.1152L59.3965 69.75H26.8407ZM29.6481 81.375H59.6639L78.4208 141.406L29.6481 81.375ZM71.8469 81.375H114.156L92.9986 149.073L71.8469 81.375ZM126.333 81.375H156.355L107.582 141.406L126.333 81.375ZM159.156 69.75H126.601L117.882 34.875H141.719L159.156 69.75ZM114.615 69.75H71.3819L80.1006 34.875H105.896L114.615 69.75Z" fill="#10375C"/>
</g>
</svg>
