<svg width="32" height="32" viewBox="0 0 32 32" fill="none" xmlns="http://www.w3.org/2000/svg">
<g id="hugeicons:incognito">
<g id="Group">
<path id="Vector" d="M2.6665 15.9995H29.3332M13.3332 23.9995C13.3332 23.4742 13.2297 22.9541 13.0287 22.4688C12.8277 21.9835 12.533 21.5425 12.1616 21.1711C11.7902 20.7996 11.3492 20.505 10.8639 20.304C10.3786 20.103 9.85846 19.9995 9.33317 19.9995C8.80788 19.9995 8.28774 20.103 7.80244 20.304C7.31713 20.505 6.87618 20.7996 6.50474 21.1711C6.13331 21.5425 5.83867 21.9835 5.63765 22.4688C5.43663 22.9541 5.33317 23.4742 5.33317 23.9995C5.33317 25.0604 5.7546 26.0778 6.50474 26.8279C7.25489 27.5781 8.2723 27.9995 9.33317 27.9995C10.394 27.9995 11.4115 27.5781 12.1616 26.8279C12.9117 26.0778 13.3332 25.0604 13.3332 23.9995ZM26.6665 23.9995C26.6665 22.9386 26.2451 21.9212 25.4949 21.1711C24.7448 20.4209 23.7274 19.9995 22.6665 19.9995C21.6056 19.9995 20.5882 20.4209 19.8381 21.1711C19.0879 21.9212 18.6665 22.9386 18.6665 23.9995C18.6665 25.0604 19.0879 26.0778 19.8381 26.8279C20.5882 27.5781 21.6056 27.9995 22.6665 27.9995C23.7274 27.9995 24.7448 27.5781 25.4949 26.8279C26.2451 26.0778 26.6665 25.0604 26.6665 23.9995Z" stroke="#10375C" stroke-width="2" stroke-linecap="round" stroke-linejoin="round"/>
<path id="Vector_2" d="M19.3333 21.7869C18.9684 21.237 18.473 20.786 17.8914 20.474C17.3098 20.162 16.66 19.9988 16 19.9989C15.34 19.9988 14.6902 20.162 14.1086 20.474C13.527 20.786 13.0316 21.237 12.6667 21.7869M4 15.9989L6.216 7.6029C6.34533 7.11357 6.40933 6.86957 6.472 6.6949C7.38 4.1669 10.352 3.20157 12.4973 4.7349C12.644 4.84157 12.8333 5.00157 13.2107 5.3269C13.4267 5.51357 13.5347 5.6069 13.6347 5.6829C15.0427 6.74957 16.9573 6.74957 18.3653 5.6829C18.4653 5.6069 18.5733 5.51357 18.7907 5.3269C19.1667 5.0029 19.356 4.84023 19.5027 4.7349C21.6493 3.20157 24.62 4.1669 25.5293 6.6949C25.5907 6.86823 25.656 7.11357 25.784 7.60157L28 15.9989H4Z" stroke="#10375C" stroke-width="2" stroke-linecap="round" stroke-linejoin="round"/>
</g>
</g>
</svg>
