<svg width="188" height="188" viewBox="0 0 188 188" fill="none" xmlns="http://www.w3.org/2000/svg">
<g id="carbon:book">
<path id="Vector" d="M111.625 58.75H152.75V70.5H111.625V58.75ZM111.625 88.125H152.75V99.875H111.625V88.125ZM111.625 117.5H152.75V129.25H111.625V117.5ZM35.25 58.75H76.375V70.5H35.25V58.75ZM35.25 88.125H76.375V99.875H35.25V88.125ZM35.25 117.5H76.375V129.25H35.25V117.5Z" fill="#10375C"/>
<path id="Vector_2" d="M164.5 29.375H23.5C20.3837 29.375 17.395 30.6129 15.1915 32.8165C12.9879 35.02 11.75 38.0087 11.75 41.125V146.875C11.75 149.991 12.9879 152.98 15.1915 155.184C17.395 157.387 20.3837 158.625 23.5 158.625H164.5C167.616 158.625 170.605 157.387 172.809 155.184C175.012 152.98 176.25 149.991 176.25 146.875V41.125C176.25 38.0087 175.012 35.02 172.809 32.8165C170.605 30.6129 167.616 29.375 164.5 29.375ZM23.5 41.125H88.125V146.875H23.5V41.125ZM99.875 146.875V41.125H164.5V146.875H99.875Z" fill="#10375C"/>
</g>
</svg>
