<svg width="201" height="187" viewBox="0 0 201 187" fill="none" xmlns="http://www.w3.org/2000/svg">
<path id="Vector" d="M46.7758 60.125C50.7204 60.125 54.6263 59.3481 58.2706 57.8385C61.915 56.329 65.2263 54.1165 68.0155 51.3272C70.8047 48.538 73.0173 45.2267 74.5268 41.5824C76.0363 37.938 76.8133 34.0321 76.8133 30.0875C76.8133 26.1429 76.0363 22.237 74.5268 18.5927C73.0173 14.9483 70.8047 11.637 68.0155 8.84778C65.2263 6.05855 61.915 3.846 58.2706 2.33648C54.6263 0.82695 50.7204 0.0500062 46.7758 0.0500063C38.8093 0.0500064 31.1692 3.21466 25.5361 8.84778C19.9029 14.4809 16.7383 22.1211 16.7383 30.0875C16.7383 38.0539 19.9029 45.6941 25.5361 51.3272C31.1692 56.9603 38.8093 60.125 46.7758 60.125ZM46.7758 46.775C42.35 46.775 38.1055 45.0169 34.9759 41.8873C31.8464 38.7578 30.0883 34.5133 30.0883 30.0875C30.0883 25.6617 31.8464 21.4172 34.9759 18.2877C38.1055 15.1581 42.35 13.4 46.7758 13.4C51.2016 13.4 55.4461 15.1581 58.5756 18.2877C61.7051 21.4172 63.4633 25.6617 63.4633 30.0875C63.4633 34.5133 61.7051 38.7578 58.5756 41.8873C55.4461 45.0169 51.2016 46.775 46.7758 46.775ZM0.0507813 80.15C0.0507813 76.6094 1.45729 73.2137 3.96091 70.7101C6.46452 68.2065 9.86014 66.8 13.4008 66.8H80.1508C83.6914 66.8 87.087 68.2065 89.5907 70.7101C92.0943 73.2137 93.5008 76.6094 93.5008 80.15V140.225C93.5008 146.361 92.2922 152.437 89.9441 158.106C87.5959 163.775 84.1542 168.926 79.8153 173.265C75.4765 177.603 70.3256 181.045 64.6567 183.393C58.9877 185.741 52.9118 186.95 46.7758 186.95C40.6398 186.95 34.5638 185.741 28.8949 183.393C23.226 181.045 18.075 177.603 13.7362 173.265C9.3974 168.926 5.95566 163.775 3.60751 158.106C1.25936 152.437 0.0507811 146.361 0.0507813 140.225V80.15ZM13.4008 80.15V140.225C13.4008 149.077 16.9171 157.566 23.1761 163.825C29.4351 170.084 37.9242 173.6 46.7758 173.6C55.6274 173.6 64.1164 170.084 70.3755 163.825C76.6345 157.566 80.1508 149.077 80.1508 140.225V80.15H13.4008ZM88.5079 42.0091C87.3371 46.1234 85.555 50.0386 83.2213 53.6236C88.7348 54.2644 93.7277 56.5606 97.6927 60.0316C98.5026 60.085 99.3303 60.1161 100.176 60.125C104.908 60.1247 109.574 59.006 113.792 56.8602C118.011 54.7144 121.662 51.6022 124.45 47.7773C127.237 43.9524 129.081 39.523 129.831 34.8502C130.582 30.1774 130.217 25.3933 128.768 20.888C127.318 16.3828 124.825 12.2837 121.49 8.92507C118.156 5.56641 114.075 3.04316 109.581 1.56101C105.086 0.0788531 100.305 -0.320267 95.6265 0.396177C90.9483 1.11262 86.5056 2.92435 82.6606 5.6837C85.2238 9.46175 87.2129 13.667 88.5079 18.166C90.856 15.8687 93.8298 14.3156 97.0568 13.7012C100.284 13.0868 103.62 13.4384 106.648 14.7121C109.676 15.9858 112.261 18.1248 114.078 20.8611C115.896 23.5974 116.865 26.8093 116.865 30.0942C116.865 33.3791 115.896 36.591 114.078 39.3273C112.261 42.0636 109.676 44.2026 106.648 45.4763C103.62 46.7499 100.284 47.1016 97.0568 46.4872C93.8298 45.8728 90.856 44.3063 88.5079 42.0091ZM86.8124 185.028C93.7893 187.11 101.156 187.533 108.326 186.263C115.495 184.993 122.268 182.065 128.105 177.713C133.943 173.361 138.682 167.705 141.945 161.196C145.208 154.687 146.905 147.506 146.901 140.225V80.15C146.901 76.6094 145.494 73.2137 142.991 70.7101C140.487 68.2065 137.091 66.8 133.551 66.8H103.286C105.556 70.7249 106.864 75.2906 106.864 80.15H133.564V140.225C133.565 144.89 132.588 149.503 130.696 153.767C128.804 158.031 126.04 161.852 122.58 164.981C119.121 168.111 115.044 170.481 110.613 171.938C106.181 173.395 101.493 173.906 96.8516 173.44C93.9947 177.73 90.6572 181.588 86.8391 185.014M141.935 42.0091C140.764 46.1234 138.982 50.0386 136.648 53.6236C142.162 54.2644 147.154 56.5606 151.119 60.0316C151.929 60.085 152.757 60.1161 153.602 60.125C158.335 60.1247 163.001 59.006 167.219 56.8602C171.437 54.7144 175.089 51.6022 177.876 47.7773C180.663 43.9524 182.507 39.523 183.258 34.8502C184.008 30.1774 183.644 25.3933 182.194 20.888C180.745 16.3828 178.251 12.2837 174.917 8.92507C171.583 5.56641 167.502 3.04316 163.007 1.56101C158.513 0.0788531 153.731 -0.320267 149.053 0.396177C144.375 1.11262 139.932 2.92435 136.087 5.6837C138.65 9.46175 140.64 13.667 141.935 18.166C144.283 15.8687 147.257 14.3156 150.483 13.7012C153.71 13.0868 157.047 13.4384 160.075 14.7121C163.103 15.9858 165.688 18.1248 167.505 20.8611C169.323 23.5974 170.292 26.8093 170.292 30.0942C170.292 33.3791 169.323 36.591 167.505 39.3273C165.688 42.0636 163.103 44.2026 160.075 45.4763C157.047 46.7499 153.71 47.1016 150.483 46.4872C147.257 45.8728 144.283 44.3063 141.935 42.0091ZM140.239 185.028C144.493 186.3 148.943 186.946 153.589 186.963C165.981 186.963 177.866 182.041 186.629 173.278C195.391 164.515 200.314 152.631 200.314 140.238V80.15C200.314 76.6094 198.908 73.2137 196.404 70.7101C193.9 68.2065 190.505 66.8 186.964 66.8H156.7C158.969 70.7249 160.277 75.2906 160.277 80.15H186.977V140.225C186.978 144.89 186.002 149.503 184.11 153.767C182.218 158.031 179.453 161.852 175.994 164.981C172.534 168.111 168.458 170.481 164.026 171.938C159.594 173.395 154.907 173.906 150.265 173.44C147.408 177.73 144.071 181.588 140.252 185.014" fill="#10375C"/>
</svg>
