<svg width="32" height="32" viewBox="0 0 32 32" fill="none" xmlns="http://www.w3.org/2000/svg">
<g id="gg:screen">
<path id="Vector" fill-rule="evenodd" clip-rule="evenodd" d="M14.5458 23.2726H4.36408C3.20678 23.2726 2.09689 22.8129 1.27855 21.9945C0.460222 21.1762 0.000488281 20.0663 0.000488281 18.909V7.27277C0.000488281 6.11547 0.460222 5.00558 1.27855 4.18725C2.09689 3.36891 3.20678 2.90918 4.36408 2.90918H27.6366C28.7939 2.90918 29.9038 3.36891 30.7221 4.18725C31.5404 5.00558 32.0002 6.11547 32.0002 7.27277V18.909C32.0002 20.0663 31.5404 21.1762 30.7221 21.9945C29.9038 22.8129 28.7939 23.2726 27.6366 23.2726H17.4549V26.1817H21.8184C22.2042 26.1817 22.5742 26.3349 22.847 26.6077C23.1197 26.8805 23.273 27.2504 23.273 27.6362C23.273 28.022 23.1197 28.3919 22.847 28.6647C22.5742 28.9375 22.2042 29.0907 21.8184 29.0907H10.1822C9.79644 29.0907 9.42647 28.9375 9.15369 28.6647C8.88092 28.3919 8.72767 28.022 8.72767 27.6362C8.72767 27.2504 8.88092 26.8805 9.15369 26.6077C9.42647 26.3349 9.79644 26.1817 10.1822 26.1817H14.5458V23.2726ZM4.36408 5.81824H27.6366C28.0223 5.81824 28.3923 5.97149 28.6651 6.24426C28.9379 6.51704 29.0911 6.88701 29.0911 7.27277V18.909C29.0911 19.2948 28.9379 19.6647 28.6651 19.9375C28.3923 20.2103 28.0223 20.3635 27.6366 20.3635H4.36408C3.97831 20.3635 3.60835 20.2103 3.33557 19.9375C3.06279 19.6647 2.90955 19.2948 2.90955 18.909V7.27277C2.90955 6.88701 3.06279 6.51704 3.33557 6.24426C3.60835 5.97149 3.97831 5.81824 4.36408 5.81824Z" fill="#10375C"/>
</g>
</svg>
