<svg width="32" height="32" viewBox="0 0 32 32" fill="none" xmlns="http://www.w3.org/2000/svg">
<path d="M30.4 14.7179H28.832C27.9472 14.7179 27.232 15.2923 27.232 15.9995C27.232 16.7051 27.9472 17.2779 28.832 17.2779H30.4C31.2832 17.2779 32 16.7067 32 15.9995C32 15.2939 31.2816 14.7179 30.4 14.7179ZM16 7.19951C14.8434 7.19592 13.6974 7.42109 12.6281 7.86206C11.5589 8.30303 10.5873 8.95109 9.76945 9.76896C8.95158 10.5868 8.30351 11.5584 7.86254 12.6277C7.42158 13.6969 7.19641 14.8429 7.2 15.9995C7.2 20.8811 11.1184 24.7995 16 24.7995C20.88 24.7995 24.8 20.8811 24.8 15.9995C24.8 11.1179 20.8784 7.19951 16 7.19951ZM16 22.3995C12.4624 22.3995 9.6 19.5339 9.6 15.9995C9.6 12.4619 12.4624 9.59951 16 9.59951C17.6974 9.59951 19.3253 10.2738 20.5255 11.474C21.7257 12.6743 22.4 14.3021 22.4 15.9995C22.4 17.6969 21.7257 19.3248 20.5255 20.525C19.3253 21.7252 17.6974 22.3995 16 22.3995ZM4.8 15.9995C4.8 15.2939 4.0816 14.7179 3.2 14.7179H1.6C0.7152 14.7179 0 15.2923 0 15.9995C0 16.7051 0.7152 17.2779 1.6 17.2779H3.2C4.0816 17.2779 4.8 16.7051 4.8 15.9995ZM16 4.79951C16.7056 4.79951 17.2784 4.08431 17.2784 3.19951V1.59951C17.2784 0.714712 16.7056 -0.000488281 16 -0.000488281C15.2928 -0.000488281 14.7184 0.714712 14.7184 1.59951V3.19951C14.7184 4.08431 15.2928 4.79951 16 4.79951ZM16 27.1995C15.2928 27.1995 14.7184 27.9147 14.7184 28.7995V30.3995C14.7184 31.2843 15.2928 31.9995 16 31.9995C16.7056 31.9995 17.2784 31.2843 17.2784 30.3995V28.7995C17.2784 27.9147 16.7056 27.1995 16 27.1995ZM27.784 6.02511C28.4096 5.39951 28.5104 4.48751 28.0112 3.98831C27.512 3.48911 26.5984 3.59151 25.976 4.21711L24.856 5.33551C24.2304 5.96111 24.1296 6.87311 24.6288 7.37231C25.128 7.87151 26.0416 7.76911 26.6656 7.14351L27.784 6.02511ZM5.3344 24.8523L4.2144 25.9739C3.5888 26.5995 3.488 27.5083 3.9872 28.0075C4.4864 28.5067 5.4 28.4075 6.0224 27.7819L7.1424 26.6635C7.768 26.0379 7.8688 25.1259 7.3696 24.6251C6.8704 24.1243 5.9568 24.2299 5.3344 24.8523ZM6.024 4.21551C5.4 3.58991 4.4864 3.48751 3.9872 3.98671C3.488 4.48591 3.5904 5.39951 4.2128 6.02511L5.3328 7.14351C5.9584 7.76911 6.8688 7.87151 7.368 7.37231C7.8672 6.87311 7.7664 5.95951 7.1424 5.33551L6.024 4.21551ZM24.8544 26.6651L25.9744 27.7835C26.6 28.4091 27.5104 28.5083 28.0096 28.0123C28.5088 27.5131 28.408 26.5995 27.7824 25.9755L26.664 24.8571C26.0384 24.2315 25.1264 24.1291 24.6256 24.6283C24.1248 25.1275 24.2288 26.0395 24.8544 26.6651Z" fill="#10375C"/>
</svg>
