<svg width="32" height="32" viewBox="0 0 32 32" fill="none" xmlns="http://www.w3.org/2000/svg">
<g id="tabler:air-conditioning">
<g id="Group">
<path id="Vector" d="M9.33333 22.5006C9.33333 23.8267 8.80655 25.0984 7.86887 26.0361C6.93119 26.9738 5.65942 27.5006 4.33333 27.5006M22.6667 22.5006C22.6667 23.8267 23.1934 25.0984 24.1311 26.0361C25.0688 26.9738 26.3406 27.5006 27.6667 27.5006M16 22.5006V29.1672M1 7.50057C1 6.61651 1.35119 5.76867 1.97631 5.14355C2.60143 4.51843 3.44928 4.16724 4.33333 4.16724H27.6667C28.5507 4.16724 29.3986 4.51843 30.0237 5.14355C30.6488 5.76867 31 6.61651 31 7.50057V14.1672C31 15.0513 30.6488 15.8991 30.0237 16.5243C29.3986 17.1494 28.5507 17.5006 27.6667 17.5006H4.33333C3.44928 17.5006 2.60143 17.1494 1.97631 16.5243C1.35119 15.8991 1 15.0513 1 14.1672V7.50057Z" stroke="#10375C" stroke-width="2" stroke-linecap="round" stroke-linejoin="round"/>
<path id="Vector_2" d="M7.66699 17.4999V12.4999C7.66699 12.0579 7.84259 11.634 8.15515 11.3214C8.46771 11.0088 8.89163 10.8333 9.33366 10.8333H22.667C23.109 10.8333 23.5329 11.0088 23.8455 11.3214C24.1581 11.634 24.3337 12.0579 24.3337 12.4999V17.4999" stroke="#10375C" stroke-width="2" stroke-linecap="round" stroke-linejoin="round"/>
</g>
</g>
</svg>
