<svg width="196" height="196" viewBox="0 0 196 196" fill="none" xmlns="http://www.w3.org/2000/svg">
<path d="M123.266 159.25C123.266 172.782 115.361 183.75 101.828 183.75H51.2969C37.7645 183.75 29.8594 172.782 29.8594 159.25M128.625 128.625C135.389 128.625 140.875 135.481 140.875 143.938C140.875 152.394 135.389 159.25 128.625 159.25H24.5C17.7357 159.25 12.25 152.394 12.25 143.938C12.25 135.481 17.7357 128.625 24.5 128.625" stroke="#10375C" stroke-width="12.25" stroke-miterlimit="10" stroke-linecap="round"/>
<path d="M24.5 105.656V105.572C24.5 84.5173 41.7266 73.5 62.7812 73.5H90.3438C111.398 73.5 128.625 84.6016 128.625 105.656V105.572M92.2578 42.875L95.1059 67.3635M131.688 128.625H68.6421C67.831 128.625 67.0531 128.948 66.4792 129.521L56.2084 139.792C56.0661 139.934 55.8973 140.047 55.7114 140.124C55.5255 140.201 55.3262 140.241 55.125 140.241C54.9238 140.241 54.7245 140.201 54.5386 140.124C54.3527 140.047 54.1839 139.934 54.0416 139.792L43.7708 129.521C43.1969 128.948 42.419 128.625 41.6079 128.625H21.4375C19.0008 128.625 16.6639 127.657 14.941 125.934C13.218 124.211 12.25 121.874 12.25 119.438C12.25 117.001 13.218 114.664 14.941 112.941C16.6639 111.218 19.0008 110.25 21.4375 110.25H131.688C134.124 110.25 136.461 111.218 138.184 112.941C139.907 114.664 140.875 117.001 140.875 119.438C140.875 121.874 139.907 124.211 138.184 125.934C136.461 127.657 134.124 128.625 131.688 128.625Z" stroke="#10375C" stroke-width="12.25" stroke-miterlimit="10" stroke-linecap="round"/>
<path d="M98 183.75H151.33C154.42 183.75 157.396 182.582 159.662 180.48C161.927 178.377 163.314 175.497 163.545 172.415L177.242 42.875" stroke="#10375C" stroke-width="12.25" stroke-miterlimit="10" stroke-linecap="round"/>
<path d="M140.875 42.875L147 18.375L164.992 12.25" stroke="#10375C" stroke-width="12.25" stroke-linecap="round" stroke-linejoin="round"/>
<path d="M85.75 42.875H183.75" stroke="#10375C" stroke-width="12.25" stroke-miterlimit="10" stroke-linecap="round"/>
<path d="M54.2259 10.8455V54.2269H10.8445V10.8455H54.2259ZM59.6485 5.42285H5.42188V59.6495H59.6485V5.42285ZM32.5352 16.2682C23.5607 16.2682 16.2672 23.5617 16.2672 32.5362C16.2672 41.5107 23.5607 48.8042 32.5352 48.8042C41.5097 48.8042 48.8032 41.5107 48.8032 32.5362C48.8032 23.5617 41.5097 16.2682 32.5352 16.2682Z" fill="#10375C"/>
</svg>
