<svg width="202" height="202" viewBox="0 0 202 202" fill="none" xmlns="http://www.w3.org/2000/svg">
<g id="arcticons:8-ball-pool">
<path id="Vector" d="M101.001 191.479C150.971 191.479 191.48 150.97 191.48 101C191.48 51.0297 150.971 10.5208 101.001 10.5208C51.0304 10.5208 10.5215 51.0297 10.5215 101C10.5215 150.97 51.0304 191.479 101.001 191.479Z" stroke="#10375C" stroke-width="10" stroke-linecap="round" stroke-linejoin="round"/>
<path id="Vector_2" d="M105.094 101C108.436 101 111.641 102.328 114.004 104.691C116.367 107.053 117.694 110.258 117.694 113.6C117.694 116.942 116.367 120.147 114.004 122.51C111.641 124.873 108.436 126.2 105.094 126.2H96.9068C93.565 126.2 90.3601 124.873 87.9971 122.51C85.6342 120.147 84.3066 116.942 84.3066 113.6C84.3066 110.258 85.6342 107.053 87.9971 104.691C90.3601 102.328 93.565 101 96.9068 101H105.094ZM105.094 101C108.436 101 111.641 99.6725 114.004 97.3095C116.367 94.9465 117.694 91.7416 117.694 88.3999C117.694 85.0581 116.367 81.8532 114.004 79.4902C111.641 77.1272 108.436 75.7997 105.094 75.7997H96.9124C93.5706 75.7997 90.3657 77.1272 88.0027 79.4902C85.6398 81.8532 84.3122 85.0581 84.3122 88.3999C84.3122 91.7416 85.6398 94.9465 88.0027 97.3095C90.3657 99.6725 93.5706 101 96.9124 101" stroke="#10375C" stroke-width="13.3071" stroke-linecap="round" stroke-linejoin="round"/>
<path id="Vector_3" d="M100.999 157.001C131.927 157.001 156.999 131.928 156.999 101C156.999 70.0717 131.927 44.9993 100.999 44.9993C70.0704 44.9993 44.998 70.0717 44.998 101C44.998 131.928 70.0704 157.001 100.999 157.001Z" stroke="#10375C" stroke-width="13.3071" stroke-linecap="round" stroke-linejoin="round"/>
</g>
</svg>
