<svg width="229" height="229" viewBox="0 0 229 229" fill="none" xmlns="http://www.w3.org/2000/svg">
<g id="material-symbols-light:sentiment-calm-outline-rounded">
<path id="Vector" d="M114.5 164.04C119.417 164.04 124.108 163.108 128.574 161.245C133.039 159.381 137.155 156.805 140.921 153.516C141.862 152.733 142.365 151.735 142.428 150.52C142.492 149.311 142.053 148.316 141.112 147.533C140.17 146.751 139.13 146.388 137.992 146.445C136.853 146.503 135.8 146.926 134.833 147.715C131.882 150.024 128.682 151.878 125.234 153.277C121.787 154.677 118.209 155.373 114.5 155.367C110.791 155.361 107.213 154.661 103.766 153.268C100.318 151.875 97.1183 150.024 94.1667 147.715C93.1935 146.932 92.1407 146.509 91.0084 146.445C89.8761 146.382 88.8393 146.744 87.8978 147.533C86.9564 148.322 86.5143 149.318 86.5715 150.52C86.6288 151.722 87.1313 152.721 88.0791 153.516C91.8449 156.766 95.9605 159.333 100.426 161.216C104.892 163.099 109.583 164.04 114.5 164.04ZM114.529 200.375C102.652 200.375 91.4887 198.123 81.0374 193.619C70.5861 189.109 61.4929 182.99 53.7577 175.261C46.0226 167.533 39.9001 158.449 35.39 148.01C30.88 137.572 28.625 126.411 28.625 114.529C28.625 102.646 30.88 91.4823 35.39 81.0374C39.8937 70.5861 46.0036 61.4929 53.7196 53.7577C61.4356 46.0226 70.5225 39.9001 80.9801 35.39C91.4378 30.88 102.602 28.625 114.471 28.625C126.341 28.625 137.505 30.88 147.963 35.39C158.414 39.8937 167.507 46.0067 175.242 53.7291C182.977 61.4515 189.1 70.5384 193.61 80.9897C198.12 91.441 200.375 102.602 200.375 114.471C200.375 126.341 198.123 137.505 193.62 147.963C189.116 158.42 182.996 167.513 175.261 175.242C167.526 182.971 158.443 189.094 148.01 193.61C137.578 198.126 126.418 200.381 114.529 200.375ZM114.5 190.833C135.81 190.833 153.859 183.439 168.649 168.649C183.439 153.859 190.833 135.81 190.833 114.5C190.833 93.1903 183.439 75.1406 168.649 60.351C153.859 45.5615 135.81 38.1667 114.5 38.1667C93.1903 38.1667 75.1406 45.5615 60.351 60.351C45.5615 75.1406 38.1667 93.1903 38.1667 114.5C38.1667 135.81 45.5615 153.859 60.351 168.649C75.1406 183.439 93.1903 190.833 114.5 190.833ZM81.9915 111.561C86.5715 111.561 90.684 110.187 94.3289 107.439C97.9802 104.685 100.735 101.186 102.592 96.9433C103.018 95.7347 103.06 94.5325 102.716 93.3366C102.36 92.1407 101.581 91.3678 100.378 91.0179C99.3606 90.6617 98.2792 90.7667 97.1342 91.3328C96.0019 91.9053 95.2227 92.7005 94.7965 93.7182C93.556 96.269 91.8258 98.4764 89.6058 100.34C87.3858 102.204 84.8572 103.133 82.0202 103.126C79.1831 103.12 76.6482 102.182 74.4155 100.312C72.1891 98.4414 70.4684 96.2245 69.2534 93.661C68.8209 92.6432 68.0671 91.8576 66.992 91.3042C65.917 90.7508 64.8674 90.6554 63.8433 91.0179C62.641 91.3678 61.8332 92.1407 61.4197 93.3366C61.0062 94.5325 61.0953 95.7347 61.6869 96.9433C63.4743 101.224 66.1587 104.733 69.74 107.468C73.3277 110.203 77.4115 111.561 81.9915 111.561ZM146.942 111.571C151.522 111.571 155.637 110.194 159.289 107.439C162.934 104.685 165.685 101.186 167.542 96.9433C167.975 95.7347 168.016 94.5325 167.666 93.3366C167.316 92.1407 166.54 91.3678 165.338 91.0179C164.32 90.6617 163.239 90.7667 162.094 91.3328C160.955 91.9053 160.173 92.7005 159.747 93.7182C158.513 96.269 156.785 98.4764 154.565 100.34C152.345 102.204 149.817 103.133 146.98 103.126C144.143 103.12 141.608 102.182 139.375 100.312C137.149 98.4414 135.425 96.2245 134.204 93.661C133.777 92.6432 133.027 91.8576 131.952 91.3042C130.877 90.7508 129.827 90.6554 128.803 91.0179C127.594 91.3678 126.786 92.1407 126.379 93.3366C125.972 94.5261 126.061 95.7284 126.647 96.9433C128.428 101.224 131.112 104.733 134.7 107.468C138.287 110.203 142.368 111.571 146.942 111.571Z" fill="#10375C"/>
</g>
</svg>
